<svg xmlns="http://www.w3.org/2000/svg" viewBox="0 0 64 64"><path fill="#fbcb00" d="M17,24.5a7.45,7.45,0,0,1-3,6,7.44,7.44,0,0,1-9,0,7.43,7.43,0,0,1-3-6A4.19,4.19,0,0,1,2,24H17A4.19,4.19,0,0,1,17,24.5Z"/><path fill="#ffc578" d="M32,24.5a7.45,7.45,0,0,1-3,6,7.45,7.45,0,0,1-9,0,7.45,7.45,0,0,1-3-6,4.19,4.19,0,0,1,0-.5H32A4.19,4.19,0,0,1,32,24.5Z"/><path fill="#fbcb00" d="M47,24.5a7.45,7.45,0,0,1-3,6,7.45,7.45,0,0,1-9,0,7.45,7.45,0,0,1-3-6,4.19,4.19,0,0,1,0-.5H47A4.19,4.19,0,0,1,47,24.5Z"/><path fill="#ffc578" d="M62,24.5a7.43,7.43,0,0,1-3,6,7.44,7.44,0,0,1-9,0,7.45,7.45,0,0,1-3-6,4.19,4.19,0,0,1,0-.5H62A4.19,4.19,0,0,1,62,24.5Z"/><path fill="#fcd8aa" d="M62,24H2C2,23.91,6,8,6,8h9v4H27.54a6,6,0,0,0,8.92,0H49V8h9l3.62,14.48S62,23.91,62,24Z"/><path fill="#ee161f" d="M49,4v8H36.46a6,6,0,0,1-8.92,0H15V4H27.54a6,6,0,0,1,8.92,0Z"/><rect width="15" height="21" x="13" y="41" fill="#00459a"/><path fill="#bedcff" d="M54.5,32A7.36,7.36,0,0,1,50,30.48a7.45,7.45,0,0,1-3-6,7.45,7.45,0,0,1-3,6,7.45,7.45,0,0,1-9,0,7.45,7.45,0,0,1-3-6,7.45,7.45,0,0,1-3,6,7.45,7.45,0,0,1-9,0,7.45,7.45,0,0,1-3-6,7.45,7.45,0,0,1-3,6,7.44,7.44,0,0,1-9,0V58a4,4,0,0,0,4,4h4V41H28V62H55a4,4,0,0,0,4-4V30.48A7.35,7.35,0,0,1,54.5,32ZM53,46H34V38H53Z"/><rect width="19" height="8" x="34" y="38" fill="#fff"/><path d="M63.94,23.52v0a7.78,7.78,0,0,0-.32-1.61l-.08,0-3.6-14.4A2,2,0,0,0,58,6H51V4a2,2,0,0,0-2-2H37.28A8,8,0,0,0,26.72,2H15a2,2,0,0,0-2,2V6H6A2,2,0,0,0,4.06,7.52l-4,16a1.84,1.84,0,0,0,0,.62c0,.12,0,.24,0,.36a9.47,9.47,0,0,0,3,6.91V58a6,6,0,0,0,6,6H55a6,6,0,0,0,6-6V31.41a9.47,9.47,0,0,0,3-6.91c0-.12,0-.24,0-.36A1.84,1.84,0,0,0,63.94,23.52ZM59.79,26a5.5,5.5,0,0,1-10.58,0ZM17,6H27.54A2,2,0,0,0,29,5.33a4,4,0,0,1,5.92,0,2,2,0,0,0,1.5.67H47v4H36.46a2,2,0,0,0-1.5.67,4,4,0,0,1-5.92,0,2,2,0,0,0-1.5-.67H17ZM7.56,10H13v2a2,2,0,0,0,2,2H26.72a8,8,0,0,0,10.56,0H49a2,2,0,0,0,2-2V10h5.44l3,12H4.56ZM44.79,26a5.5,5.5,0,0,1-10.58,0Zm-15,0a5.5,5.5,0,0,1-10.58,0Zm-15,0A5.5,5.5,0,0,1,4.21,26ZM26,60H15V43H26Zm31-2a2,2,0,0,1-2,2H30V41a2,2,0,0,0-2-2H13a2,2,0,0,0-2,2V60H9a2,2,0,0,1-2-2V33.66A9.79,9.79,0,0,0,9.5,34,9.48,9.48,0,0,0,17,30.31a9.47,9.47,0,0,0,15,0,9.47,9.47,0,0,0,15,0A9.48,9.48,0,0,0,54.5,34a9.79,9.79,0,0,0,2.5-.34Z"/><path d="M53,36H34a2,2,0,0,0-2,2v8a2,2,0,0,0,2,2H53a2,2,0,0,0,2-2V38A2,2,0,0,0,53,36Zm-2,8H36V40H51Z"/></svg>